<?xml version="1.0" encoding="UTF-8" standalone="no"?>
<!-- Created with Inkscape (http://www.inkscape.org/) -->

<svg
   xmlns:osb="http://www.openswatchbook.org/uri/2009/osb"
   xmlns:dc="http://purl.org/dc/elements/1.1/"
   xmlns:cc="http://creativecommons.org/ns#"
   xmlns:rdf="http://www.w3.org/1999/02/22-rdf-syntax-ns#"
   xmlns:svg="http://www.w3.org/2000/svg"
   xmlns="http://www.w3.org/2000/svg"
   xmlns:xlink="http://www.w3.org/1999/xlink"
   xmlns:sodipodi="http://sodipodi.sourceforge.net/DTD/sodipodi-0.dtd"
   xmlns:inkscape="http://www.inkscape.org/namespaces/inkscape"
   width="398.64154"
   height="206.25"
   id="svg2"
   version="1.1"
   inkscape:version="0.48.2 r9819"
   sodipodi:docname="blue.svg">
   <style>
     g#P:hover {
       opacity: 0.8;
     }
   </style>
  <defs
     id="defs4">
    <linearGradient
       id="linearGradient3835">
      <stop
         style="stop-color:#f7ff58;stop-opacity:1;"
         offset="0"
         id="stop3837" />
      <stop
         id="stop3839"
         offset="0.5"
         style="stop-color:#ff984c;stop-opacity:1;" />
      <stop
         style="stop-color:#ff000e;stop-opacity:1;"
         offset="1"
         id="stop3841" />
    </linearGradient>
    <pattern
       inkscape:collect="always"
       xlink:href="#pattern3811"
       id="pattern3829"
       patternTransform="translate(100.23692,221.8888)" />
    <pattern
       inkscape:collect="always"
       xlink:href="#pattern5266"
       id="pattern3811"
       patternTransform="translate(102.94256,489.74695)" />
    <linearGradient
       id="linearGradient3789">
      <stop
         id="stop3791"
         offset="0"
         style="stop-color:#ff5889;stop-opacity:1;" />
      <stop
         style="stop-color:#fb4cff;stop-opacity:1;"
         offset="0.5"
         id="stop3793" />
      <stop
         id="stop3795"
         offset="1"
         style="stop-color:#3471ff;stop-opacity:1;" />
    </linearGradient>
    <pattern
       inkscape:collect="always"
       xlink:href="#pattern5217"
       id="pattern5266"
       patternTransform="translate(91.443603,726.49026)" />
    <linearGradient
       id="linearGradient5238">
      <stop
         style="stop-color:#58d0ff;stop-opacity:1;"
         offset="0"
         id="stop5240" />
      <stop
         id="stop5246"
         offset="0.52571428"
         style="stop-color:#4ca7ff;stop-opacity:1;" />
      <stop
         style="stop-color:#001aff;stop-opacity:1;"
         offset="1"
         id="stop5242" />
    </linearGradient>
    <pattern
       inkscape:collect="always"
       xlink:href="#pattern5217"
       id="pattern5232"
       patternTransform="matrix(0.99145561,-0.13044455,0.13044455,0.99145561,13.009415,450.01577)" />
    <linearGradient
       id="linearGradient5224"
       osb:paint="solid">
      <stop
         style="stop-color:#d23838;stop-opacity:0.92012781;"
         offset="0"
         id="stop5226" />
    </linearGradient>
    <pattern
       patternUnits="userSpaceOnUse"
       width="10.000008"
       height="10"
       patternTransform="translate(90.330152,723.70663)"
       id="pattern5217">
      <g
         id="g5213"
         transform="translate(-90.330152,-723.70663)">
        <path
           id="path5211"
           d="m 100.33016,728.70663 c 0,2.76142 -2.23858,5 -5.000006,5 -2.761424,0 -5.000002,-2.23858 -5.000002,-5 0,-2.76143 2.238578,-5 5.000002,-5 2.761426,0 5.000006,2.23857 5.000006,5 z"
           style="fill:#ffffff;fill-opacity:1;stroke:none"
           inkscape:connector-curvature="0" />
        <path
           transform="matrix(0.78161056,0,0,0.78161056,19.945541,160.01539)"
           style="fill:#0000ff;fill-opacity:1;stroke:none"
           d="m 101.56543,727.58899 c 0,2.82639 -2.291244,5.11764 -5.117638,5.11764 -2.826393,0 -5.117638,-2.29125 -5.117638,-5.11764 0,-2.82639 2.291245,-5.11764 5.117638,-5.11764 2.826394,0 5.117638,2.29125 5.117638,5.11764 z"
           id="path2989"
           inkscape:connector-curvature="0" />
      </g>
    </pattern>
    <linearGradient
       inkscape:collect="always"
       xlink:href="#linearGradient5238"
       id="linearGradient5244"
       x1="130.99937"
       y1="502.61685"
       x2="492.31812"
       y2="502.61685"
       gradientUnits="userSpaceOnUse"
       gradientTransform="translate(8,-140)" />
    <linearGradient
       inkscape:collect="always"
       xlink:href="#linearGradient5238"
       id="linearGradient4533"
       x1="102.05457"
       y1="502.61685"
       x2="492.31812"
       y2="502.61685"
       gradientUnits="userSpaceOnUse" />
    <linearGradient
       inkscape:collect="always"
       xlink:href="#linearGradient5238"
       id="linearGradient4541"
       x1="97.444153"
       y1="475.74347"
       x2="315.02032"
       y2="475.74347"
       gradientUnits="userSpaceOnUse" />
    <linearGradient
       inkscape:collect="always"
       xlink:href="#linearGradient5238"
       id="linearGradient4549"
       x1="92.676575"
       y1="468.6048"
       x2="492.22263"
       y2="475.54752"
       gradientUnits="userSpaceOnUse" />
    <linearGradient
       inkscape:collect="always"
       xlink:href="#linearGradient5238"
       id="linearGradient4588"
       gradientUnits="userSpaceOnUse"
       x1="92.676575"
       y1="468.6048"
       x2="492.22263"
       y2="475.54752"
       gradientTransform="translate(8.6784155,257.74894)" />
    <linearGradient
       inkscape:collect="always"
       xlink:href="#linearGradient5238"
       id="linearGradient4590"
       gradientUnits="userSpaceOnUse"
       x1="102.05457"
       y1="502.61685"
       x2="492.31812"
       y2="502.61685"
       gradientTransform="translate(8.6784155,257.74894)" />
    <linearGradient
       inkscape:collect="always"
       xlink:href="#linearGradient3789"
       id="linearGradient3813"
       gradientUnits="userSpaceOnUse"
       x1="92.676575"
       y1="468.6048"
       x2="492.22263"
       y2="475.54752"
       gradientTransform="translate(11.498961,-236.74331)" />
    <linearGradient
       inkscape:collect="always"
       xlink:href="#linearGradient3789"
       id="linearGradient3815"
       gradientUnits="userSpaceOnUse"
       x1="102.05457"
       y1="502.61685"
       x2="492.31812"
       y2="502.61685"
       gradientTransform="translate(11.498961,-236.74331)" />
    <linearGradient
       inkscape:collect="always"
       xlink:href="#linearGradient3835"
       id="linearGradient3831"
       gradientUnits="userSpaceOnUse"
       gradientTransform="translate(8.7933231,-504.60146)"
       x1="92.676575"
       y1="468.6048"
       x2="492.22263"
       y2="475.54752" />
    <linearGradient
       inkscape:collect="always"
       xlink:href="#linearGradient3835"
       id="linearGradient3833"
       gradientUnits="userSpaceOnUse"
       gradientTransform="translate(8.7933231,-504.60146)"
       x1="102.05457"
       y1="502.61685"
       x2="492.31812"
       y2="502.61685" />
  </defs>
  <sodipodi:namedview
     id="base"
     pagecolor="#ffffff"
     bordercolor="#666666"
     borderopacity="1.0"
     inkscape:pageopacity="0.0"
     inkscape:pageshadow="2"
     inkscape:zoom="0.55196003"
     inkscape:cx="-359.39402"
     inkscape:cy="100.4531"
     inkscape:document-units="px"
     inkscape:current-layer="layer1"
     showgrid="false"
     inkscape:window-width="1920"
     inkscape:window-height="1099"
     inkscape:window-x="1440"
     inkscape:window-y="22"
     inkscape:window-maximized="1"
     fit-margin-top="0"
     fit-margin-left="0"
     fit-margin-right="0"
     fit-margin-bottom="0" />
  <metadata
     id="metadata7">
    <rdf:RDF>
      <cc:Work
         rdf:about="">
        <dc:format>image/svg+xml</dc:format>
        <dc:type
           rdf:resource="http://purl.org/dc/dcmitype/StillImage" />
        <dc:title>PAPI Logo</dc:title>
        <cc:license
           rdf:resource="http://creativecommons.org/licenses/by-nc-sa/3.0/" />
        <dc:date>Sep 2014</dc:date>
        <dc:creator>
          <cc:Agent>
            <dc:title>Andreas Herten</dc:title>
          </cc:Agent>
        </dc:creator>
      </cc:Work>
      <cc:License
         rdf:about="http://creativecommons.org/licenses/by-nc-sa/3.0/">
        <cc:permits
           rdf:resource="http://creativecommons.org/ns#Reproduction" />
        <cc:permits
           rdf:resource="http://creativecommons.org/ns#Distribution" />
        <cc:requires
           rdf:resource="http://creativecommons.org/ns#Notice" />
        <cc:requires
           rdf:resource="http://creativecommons.org/ns#Attribution" />
        <cc:prohibits
           rdf:resource="http://creativecommons.org/ns#CommercialUse" />
        <cc:permits
           rdf:resource="http://creativecommons.org/ns#DerivativeWorks" />
        <cc:requires
           rdf:resource="http://creativecommons.org/ns#ShareAlike" />
      </cc:License>
    </rdf:RDF>
  </metadata>
  <g
     inkscape:label="Ebene 1"
     inkscape:groupmode="layer"
     id="layer1"
     transform="translate(-102.35498,-863.3053)">
    <text
       xml:space="preserve"
       style="font-size:200px;font-style:italic;font-variant:normal;font-weight:normal;font-stretch:normal;text-align:end;line-height:100%;writing-mode:lr-tb;text-anchor:end;opacity:0.4;fill:#ffffff;fill-opacity:1;stroke:none;font-family:Brush Script Std;-inkscape-font-specification:Brush Script Std Italic"
       x="217.12299"
       y="710.53265"
       id="text5292"
       sodipodi:linespacing="100%"><tspan
         sodipodi:role="line"
         id="tspan5294"
         x="217.12299"
         y="710.53265"
         style="font-style:normal;font-variant:normal;font-weight:normal;font-stretch:normal;fill:#ff0000;font-family:Brush Script MT;-inkscape-font-specification:Brush Script MT Italic" /></text>
    <g
       style="font-size:200px;font-style:normal;font-variant:normal;font-weight:600;font-stretch:normal;text-align:end;line-height:100%;writing-mode:lr-tb;text-anchor:end;fill:#162d50;fill-opacity:1;stroke:none;font-family:Myriad Pro;-inkscape-font-specification:Myriad Pro Semi-Bold"
       id="text3047"
       inkscape:label="#API">
      <title
         id="title3034">API</title>
      <path
         d="m 329.40306,1030.1424 12.2,38.2 26.4,0 -43.8,-134.79999 -31.4,0 -43.2,134.79999 25.4,0 11.6,-38.2 42.8,0 m -38.8,-18.6 10.4,-33.19999 c 2.39999,-7.99999 4.4,-17.40001 6.4,-25.2 l 0.4,0 c 2,7.79999 4.2,17.00001 6.8,25.2 l 10.6,33.19999 -34.6,0"
         style="line-height:100%;fill:#162d50;font-family:Myriad Pro;-inkscape-font-specification:Myriad Pro Semi-Bold"
         id="path3024" />
      <path
         d="m 375.8123,1068.3424 24.4,0 0,-50.8 c 3.19999,0.6 7.4,0.8 12,0.8 17.39998,0 32.80001,-4.6 42.6,-14.4 7.59999,-7.19999 11.6,-17.80001 11.6,-30.59999 0,-12.59999 -5.20001,-23.20001 -13.2,-29.8 -8.6,-7.2 -21.80002,-11 -39.8,-11 -16.59999,0 -28.80001,1.2 -37.6,2.8 l 0,132.99999 m 24.4,-115.79999 c 2.59999,-0.6 7.4,-1.2 14.2,-1.2 16.99998,0 27.4,8.00001 27.4,23 0,15.79998 -11.20002,24.8 -29.6,24.8 -5,0 -9.00001,-0.2 -12,-1 l 0,-45.6"
         style="line-height:100%;fill:#162d50;font-family:Myriad Pro;-inkscape-font-specification:Myriad Pro Semi-Bold"
         id="path3026" />
      <path
         d="m 476.39653,933.54241 0,134.79999 24.6,0 0,-134.79999 -24.6,0"
         style="line-height:100%;fill:#162d50;font-family:Myriad Pro;-inkscape-font-specification:Myriad Pro Semi-Bold"
         id="path3028" />
    </g>
    <g
       style="font-size:250px;font-style:normal;font-variant:normal;font-weight:normal;font-stretch:normal;text-align:end;line-height:100%;writing-mode:lr-tb;text-anchor:end;fill:#0088aa;fill-opacity:1;stroke:none;font-family:Pinyon Script;-inkscape-font-specification:Pinyon Script"
       id="P"
       inkscape:label="#P">
      <desc
         id="desc3038">Personal</desc>
      <title
         id="title3036">P</title>
      <path
         d="m 244.44482,984.00842 c -42.48053,57.03128 -79.49221,85.54688 -111.03515,85.54688 -15.33202,0 -25.09763,-4.1016 -29.29688,-12.3047 -1.17184,-2.3437 -1.75778,-4.7363 -1.75781,-7.1777 3e-5,-2.5391 0.43949,-4.5898 1.31836,-6.1524 0.87894,-1.5624 2.00198,-2.832 3.36914,-3.8086 2.44143,-1.8554 5.46877,-2.7831 9.08203,-2.7832 1.46486,10e-5 3.07619,0.5372 4.83399,1.6114 1.66017,1.0742 2.49024,2.6855 2.49023,4.8339 1e-5,2.1485 -0.83006,3.9551 -2.49023,5.42 -1.66014,1.4648 -3.75975,2.1973 -6.29883,2.1972 -2.6367,10e-5 -4.78513,-0.4882 -6.44531,-1.4648 l 0,0.7324 c 2e-5,4.3946 2.09963,7.959 6.29882,10.6934 4.10158,2.7344 9.03322,4.1015 14.79493,4.1015 5.66406,0 10.40038,-0.3906 14.20898,-1.1718 3.80858,-0.8789 7.71483,-2.4414 11.71875,-4.6875 4.10154,-2.3438 8.44724,-5.5664 13.03711,-9.668 4.68746,-4.1015 9.86324,-9.375 15.52734,-15.8203 5.76167,-6.5429 12.20697,-14.4531 19.33594,-23.7305 l 24.46289,-32.81249 c -5.46884,-3.61319 -8.20321,-7.91006 -8.20312,-12.89062 -9e-5,-4.19911 1.90421,-7.81239 5.71289,-10.83985 3.51553,-2.83191 6.98232,-4.24793 10.40039,-4.24805 3.51552,1.2e-4 5.27333,0.48841 5.27343,1.46485 -1e-4,0.4884 -0.58604,0.87902 -1.75781,1.17187 -4.58994,0.78137 -8.05673,2.58801 -10.40039,5.41993 -2.24618,2.73448 -3.36923,5.61534 -3.36914,8.64257 -9e-5,3.02745 1.61124,5.61534 4.83399,7.76368 l 2.05078,-2.78321 c 16.01551,-21.58191 29.19909,-37.64635 39.55078,-48.19336 16.69906,-17.18733 33.00764,-31.24982 48.92578,-42.1875 l 6.00586,-3.95508 c -11.32831,-6.93339 -28.75993,-10.40018 -52.29492,-10.40039 -23.63293,2.1e-4 -46.58213,4.59005 -68.84766,13.76954 -20.31255,8.30096 -36.86527,19.28727 -49.6582,32.95898 -12.59767,13.37905 -18.70118,26.56263 -18.31055,39.55078 0.19531,7.32433 2.53906,12.89073 7.03125,16.69922 3.71093,3.1251 8.25194,4.68759 13.62305,4.6875 5.37106,9e-5 11.03512,-1.5624 16.99218,-4.6875 6.05465,-3.1249 11.86519,-7.1288 17.43165,-12.01172 5.56634,-4.98035 10.79094,-10.49792 15.67382,-16.55273 4.98039,-6.15221 9.32609,-12.25572 13.03711,-18.31055 8.00772,-12.89047 12.45108,-22.94905 13.33008,-30.17578 0.29287,-3.32013 0.87881,-4.98029 1.75781,-4.98047 0.97646,1.8e-4 1.51357,0.39081 1.61133,1.17187 0.0976,0.68378 0.19521,2.83221 0.29297,6.44532 0.0975,3.61345 -0.63487,8.64274 -2.19727,15.08789 -1.56259,6.44546 -3.95517,12.89077 -7.17773,19.33594 -3.12509,6.34778 -7.08016,12.45129 -11.86523,18.31054 -4.68758,5.85949 -10.05867,11.03527 -16.11329,15.52735 -13.2813,9.86337 -27.92972,14.79501 -43.94531,14.79492 -5.95704,9e-5 -11.2793,-2.246 -15.96679,-6.73828 -5.17579,-4.98037 -7.86133,-11.18153 -8.05665,-18.60352 -0.29296,-7.42175 1.41602,-14.89245 5.12696,-22.41211 3.71093,-7.51938 8.88671,-14.59945 15.52734,-21.24023 6.73826,-6.73812 14.64841,-12.89045 23.73047,-18.45703 9.17964,-5.66388 19.04291,-10.49786 29.58984,-14.50196 22.26554,-8.59355 44.92176,-12.89042 67.96875,-12.89062 23.14437,2e-4 42.04084,3.56465 56.68946,10.69336 11.8162,-6.54277 20.65408,-9.81425 26.51367,-9.81446 1.85524,2.1e-4 2.78298,0.39083 2.7832,1.17188 0.0974,0.78145 -0.0979,1.36739 -0.58594,1.75781 -0.39084,0.39083 -1.80686,0.78145 -4.24804,1.17188 -5.76194,1.07442 -12.15841,3.90644 -19.18946,8.49609 15.72244,9.27753 23.58376,21.97283 23.58399,38.08594 -2.3e-4,11.9142 -4.59006,23.48646 -13.76953,34.71679 -8.88692,10.7423 -20.55683,19.48253 -35.00977,26.22071 -14.84391,6.83602 -30.1271,10.25399 -45.84961,10.2539 -7.71496,9e-5 -14.84386,-0.68351 -21.38672,-2.05078 m 2.78321,-3.66211 c 6.15222,1.26962 11.96276,1.90439 17.43164,1.9043 5.56627,9e-5 11.27915,-0.73233 17.13867,-2.19727 5.95688,-1.46475 11.76742,-3.61318 17.43164,-6.44531 5.76155,-2.92959 11.27912,-6.54286 16.55273,-10.83984 5.27326,-4.29677 9.91192,-9.32606 13.91602,-15.08789 8.78886,-12.49987 13.18339,-26.61118 13.18359,-42.33399 -2e-4,-10.35138 -3.75997,-18.65216 -11.27929,-24.90234 -10.74238,7.81268 -21.924,18.60369 -33.54492,32.37305 -11.62125,13.76967 -21.28921,26.12317 -29.00391,37.06054 l -21.82617,30.46875"
         style="font-size:300px;fill:#0088aa"
         id="path3021"
         inkscape:label="#P"
         inkscape:connector-curvature="0">
        <desc
           id="desc3032">Personal</desc>
        <title
           id="title3030">P</title>
      </path>
    </g>
  </g>
</svg>
